# xmcd
#
# Track frame offsets:
#	150
#	17785
#	40597
#	66552
#	79717
#	112910
#	125985
#	131097
#	139425
#	147047
#	168970
#	175347
#	189207
#	210777
#	236802
#	253280
#
# Disc length: 3480 seconds
#
# Revision: 0
# Processed by: cddbd v1.5.1PL2 Copyright (c) Steve Scherf et al.
# Submitted via: dBpowerAMP V4.0
#
DISCID=e80d9610
DTITLE=Carmelia Alves - A Musica Brasileira deste Seculo
DYEAR=1900
DGENRE=MPB
TTITLE0=Sabia la gaiola
TTITLE1=Veneno pra dois
TTITLE2=Voltei pro morro
TTITLE3=Beija-me
TTITLE4=Quem dorme no ponto é chauffeur
TTITLE5=Me leva
TTITLE6=Cabeça inchada
TTITLE7=Esta noite serenou
TTITLE8=Pe de manaca
TTITLE9=Trepa no coqueiro
TTITLE10=Adeus Maria Fulo
TTITLE11=Baiao de dois-Paraiba-Qui nem gilo
TTITLE12=O xote das meninas-Riacho do navio
TTITLE13=Kalu
TTITLE14=Sodade meu bem-sodade-meu piao-Mulher rendeira-Xaxado
TTITLE15=Cantores de radio
EXTD=
EXTT0=
EXTT1=
EXTT2=
EXTT3=
EXTT4=
EXTT5=
EXTT6=
EXTT7=
EXTT8=
EXTT9=
EXTT10=
EXTT11=
EXTT12=
EXTT13=
EXTT14=
EXTT15=
PLAYORDER=
